<svg width="14" height="14" viewBox="0 0 14 14" fill="none" xmlns="http://www.w3.org/2000/svg">
<path d="M6.70578 11.2808C6.88116 11.1532 7.11884 11.1532 7.29422 11.2808L10.6993 13.7589C11.0912 14.0441 11.619 13.6607 11.4689 13.1998L10.1671 9.20263C10.0994 8.99482 10.1745 8.76713 10.3526 8.64041L13.7249 6.24076C14.1215 5.95848 13.9218 5.33337 13.435 5.33337H9.29754C9.08047 5.33337 8.88821 5.19332 8.82163 4.98672L7.4759 0.810319C7.32697 0.348115 6.67303 0.348114 6.5241 0.810318L5.17837 4.98672C5.11179 5.19332 4.91953 5.33337 4.70246 5.33337H0.565043C0.0781673 5.33337 -0.121541 5.95848 0.275151 6.24076L3.64739 8.64041C3.82546 8.76713 3.9006 8.99482 3.83292 9.20263L2.53109 13.1998C2.38098 13.6607 2.90879 14.0441 3.30073 13.7589L6.70578 11.2808Z" fill="black"/>
</svg>
