<svg xmlns="http://www.w3.org/2000/svg" width="71" height="62" viewBox="0 0 71 62" fill="none">
  <g clip-path="url(#clip0_40_18)">
    <path d="M53.9775 56.0673C53.6248 57.789 53.4435 58.8375 52.6899 59.9945C52.1879 60.7661 51.3651 61.2091 50.527 61.0974C49.7989 61.0009 49.0937 60.6457 48.3846 60.3352C40.1854 56.7446 33.5684 50.4225 26.8832 44.2168C25.2898 42.7378 21.9274 39.3134 20.0177 37.5142C24.667 33.7747 26.5914 31.4619 26.5914 31.4619C34.083 38.862 42.8175 47.5252 51.933 51.8583C53.3856 52.549 54.7448 52.325 53.9775 56.0677M44.7121 28.2543C42.6031 26.3578 38.9141 23.2096 36.8316 21.3819C31.5398 16.7373 25.8958 12.8611 19.4213 10.6526C15.9145 9.45635 15.4537 5.44581 18.105 1.90319C18.5871 1.25919 19.3404 0.836699 20.0683 1.00999C32.1269 3.88248 41.2526 12.2893 51.4146 22.8998C47.9764 24.9665 44.7118 28.254 44.7118 28.254" fill="#299E58"/>
    <path d="M37.4477 38.2116C44.9774 29.541 59.5967 19.064 66.9691 18.6788C67.3927 18.6567 67.8139 18.7637 68.1889 18.9889C68.5639 19.2141 68.8793 19.5493 69.1022 19.9597C69.8285 21.3 70.0631 22.9047 70.2799 24.4826C70.4894 26.0071 69.7907 27.3084 68.5198 27.7135C59.7118 30.5207 51.1576 37.3455 44.2145 43.8617C41.879 42.6067 37.4477 38.2116 37.4477 38.2116ZM33.3379 21.7931C24.6883 30.0104 15.3031 39.8139 5.15664 43.3241C4.30024 43.6206 3.35469 43.3761 2.73836 42.6369C1.90957 41.6426 1.59211 40.619 1.25633 39.6232C0.0821888 36.1434 0.414963 35.1254 3.45422 33.7948C10.5882 30.6703 16.524 25.4779 22.267 19.9276C23.1365 19.0873 24.8616 17.4736 25.8129 16.5835C28.9591 17.543 33.3379 21.7931 33.3379 21.7931ZM17.755 52.1127C20.2354 50.6664 24.0542 48.9596 26.5433 47.3683C28.5544 49.3855 33.2105 53.4045 33.2105 53.4045C29.8344 55.9724 24.4496 59.7956 20.701 60.8985C19.7949 61.1651 18.8326 60.7638 18.26 59.9213C17.1641 58.3076 16.5303 56.5946 16.4759 54.5559C16.4485 53.5333 16.9549 52.5791 17.755 52.1127ZM37.8666 7.09586C42.2996 4.04541 47.2874 1.75439 50.7051 0.922477C51.6449 0.693811 52.6273 1.16079 53.143 2.08354C54.1238 3.83821 54.5315 5.60097 54.4315 7.52955C54.3822 8.48093 53.9185 9.34426 53.1835 9.80066C51.0395 11.1331 47.2206 12.1719 45.0258 13.2618C45.0258 13.2618 41.1553 9.5471 37.8666 7.09586Z" fill="#165A4E"/>
    <path d="M64.2375 32.2982C70.2244 34.9439 72.4327 35.8409 68.0651 42.7052C67.5529 43.5097 66.7394 43.515 65.8896 43.2867C63.1656 42.5546 58.3318 39.3854 55.6559 37.6145C60.5882 33.7325 64.2375 32.2982 64.2375 32.2982ZM7.51969 29.2229C6.04121 28.7419 3.22836 28.2345 1.9402 27.3419C1.35777 26.9384 0.966211 26.2359 0.882812 25.4659C0.671172 23.5196 1.11031 21.7668 1.94457 20.0028C2.16849 19.5309 2.51096 19.1455 2.92826 18.8961C3.34556 18.6466 3.81874 18.5443 4.28738 18.6022C7.1582 18.965 12.3464 21.4333 15.1552 22.8946C11.0875 27.1562 7.51969 29.2229 7.51969 29.2229Z" fill="#299E58"/>
  </g>
  <defs>
    <clipPath id="clip0_40_18">
      <rect width="70" height="60.6666" fill="white" transform="translate(0.5 0.666748)"/>
    </clipPath>
  </defs>
</svg>